<svg id="Capa_1" enable-background="new 0 0 512 512" height="512" viewBox="0 0 512 512" width="512" xmlns="http://www.w3.org/2000/svg"><g><g><path d="m49.5 90.902c-27.214-.652-49.5 21.274-49.5 48.4v71.44c0 30.58 7.08 60.71 20.46 87.13 15.85 31.28 35.75 49.42 46.36 57.54.283.216 7.755 4.181 8.109 4.181 10.971 6.58 21.891-.818 21.891-11.981v-207.65c0-26.47-21.23-48.48-47.32-49.06zm17.32 223.07c-6.43-7.56-13.37-17.36-19.6-29.66-11.26-22.24-17.22-47.68-17.22-73.57v-71.44c0-10.11 8.166-18.41 18.41-18.41h.43c9.91.22 17.98 8.78 17.98 19.07v21.76l17.15 71.608z" fill="#6aa9ff"/></g><g><path d="m415.18 139.962v207.65c0 11.135 11.484 17.732 22.49 11.131.355 0 7.226-3.114 7.51-3.331 10.61-8.12 30.51-26.26 46.36-57.54 13.38-26.42 20.46-56.55 20.46-87.13v-71.44c0-27.11-22.271-49.052-49.5-48.4-26.09.58-47.32 22.59-47.32 49.06zm21.602 94.493 8.398-72.733v-21.76c0-10.29 8.07-18.85 17.98-19.07h.43c10.237 0 18.41 8.291 18.41 18.41v71.44c0 25.89-5.96 51.33-17.22 73.57-6.23 12.3-13.17 22.1-19.6 29.66z" fill="#3c91f7"/></g><path d="m445.18 161.722v193.69c-.26.2-41.27 30.36-95.74 50.26-28.19 10.29-60.82 15.44-93.44 15.44-32.64 0-65.27-5.15-93.44-15.44-54.47-19.9-95.48-50.06-95.74-50.26v-193.69c54.34-36.32 123.46-62.78 189.18-62.78 65.76 0 134.89 26.49 189.18 62.78z" fill="#d5e8fe"/><path d="m445.18 161.722v193.69c-.26.2-41.27 30.36-95.74 50.26-28.19 10.29-60.82 15.44-93.44 15.44v-322.17c65.76 0 134.89 26.49 189.18 62.78z" fill="#b5dbff"/><path d="m445.18 220.912v78.16c-57.31 34.86-131.61 61.98-189.18 61.98s-131.87-27.12-189.18-61.98v-78.16c57.31-34.85 131.61-61.97 189.18-61.97s131.87 27.12 189.18 61.97z" fill="#edf5ff"/><path d="m445.18 220.912v78.16c-57.31 34.86-131.61 61.98-189.18 61.98v-202.11c57.57 0 131.87 27.12 189.18 61.97z" fill="#d5e8fe"/><path d="m307.06 260.002c0 8.28-6.72 15-15 15h-21.06v21.05c0 8.29-6.72 15-15 15s-15-6.71-15-15v-21.05h-21.06c-8.28 0-15-6.72-15-15 0-8.29 6.72-15 15-15h21.06v-21.06c0-8.29 6.72-15 15-15s15 6.71 15 15v21.06h21.06c8.28 0 15 6.71 15 15z" fill="#ff884d"/><path d="m307.06 260.002c0 8.28-6.72 15-15 15h-21.06v21.05c0 8.29-6.72 15-15 15v-102.11c8.28 0 15 6.71 15 15v21.06h21.06c8.28 0 15 6.71 15 15z" fill="#ff4d4d"/></g></svg>